<svg width="42" height="41" viewBox="0 0 42 41" fill="none" xmlns="http://www.w3.org/2000/svg">
<path d="M42 17.2969V18.5781C42 19.6395 41.2165 20.5 40.25 20.5H39.6667L37.7626 35.1373C37.5163 37.0309 36.0396 38.4375 34.2978 38.4375H7.70219C5.96043 38.4375 4.48372 37.0309 4.23733 35.1373L2.33333 20.5H1.75C0.78349 20.5 0 19.6395 0 18.5781V17.2969C0 16.2354 0.78349 15.375 1.75 15.375H6.66028L14.4463 3.61783C15.2043 2.47336 16.6635 2.22023 17.7058 3.05264C18.748 3.88505 18.9784 5.48766 18.2204 6.63221L12.4306 15.375H29.5694L23.7796 6.63213C23.0216 5.48766 23.2521 3.88497 24.2943 3.05256C25.3364 2.22015 26.7958 2.4732 27.5537 3.61775L35.3397 15.375H40.25C41.2165 15.375 42 16.2354 42 17.2969ZM22.75 31.3906V22.4219C22.75 21.3604 21.9665 20.5 21 20.5C20.0335 20.5 19.25 21.3604 19.25 22.4219V31.3906C19.25 32.452 20.0335 33.3125 21 33.3125C21.9665 33.3125 22.75 32.452 22.75 31.3906ZM30.9167 31.3906V22.4219C30.9167 21.3604 30.1332 20.5 29.1667 20.5C28.2002 20.5 27.4167 21.3604 27.4167 22.4219V31.3906C27.4167 32.452 28.2002 33.3125 29.1667 33.3125C30.1332 33.3125 30.9167 32.452 30.9167 31.3906ZM14.5833 31.3906V22.4219C14.5833 21.3604 13.7998 20.5 12.8333 20.5C11.8668 20.5 11.0833 21.3604 11.0833 22.4219V31.3906C11.0833 32.452 11.8668 33.3125 12.8333 33.3125C13.7998 33.3125 14.5833 32.452 14.5833 31.3906Z" fill="white"/>
</svg>
