<svg width="36" height="36" viewBox="0 0 36 36" fill="none" xmlns="http://www.w3.org/2000/svg">
<path d="M32.5702 15.72L29.2202 14.72C28.9886 13.9113 28.6701 13.1301 28.2702 12.39L29.9102 9.32C29.9718 9.20412 29.9943 9.07148 29.9745 8.94178C29.9547 8.81208 29.8935 8.69222 29.8002 8.6L27.4102 6.2C27.318 6.10667 27.1981 6.04556 27.0684 6.02575C26.9387 6.00593 26.8061 6.02846 26.6902 6.09L23.6402 7.72C22.8928 7.30066 22.1014 6.96529 21.2802 6.72L20.2802 3.41C20.2379 3.28802 20.158 3.1826 20.052 3.10892C19.946 3.03525 19.8193 2.99711 19.6902 3H16.3102C16.1804 3.00061 16.0541 3.04264 15.9498 3.11997C15.8454 3.19731 15.7685 3.30592 15.7302 3.43L14.7302 6.73C13.9022 6.97398 13.104 7.30938 12.3502 7.73L9.35021 6.11C9.23433 6.04846 9.1017 6.02593 8.972 6.04575C8.84229 6.06556 8.72244 6.12667 8.63021 6.22L6.20021 8.59C6.10688 8.68222 6.04578 8.80208 6.02596 8.93178C6.00614 9.06148 6.02868 9.19412 6.09021 9.31L7.71021 12.31C7.29027 13.0606 6.95489 13.8555 6.71021 14.68L3.40021 15.68C3.27614 15.7183 3.16753 15.7952 3.09019 15.8996C3.01285 16.0039 2.97082 16.1301 2.97021 16.26V19.64C2.97082 19.7699 3.01285 19.8961 3.09019 20.0005C3.16753 20.1048 3.27614 20.1817 3.40021 20.22L6.73021 21.22C6.97756 22.0308 7.31289 22.8121 7.73022 23.55L6.09021 26.69C6.02868 26.8059 6.00614 26.9385 6.02596 27.0682C6.04578 27.1979 6.10688 27.3178 6.20021 27.41L8.59021 29.8C8.68244 29.8933 8.80229 29.9544 8.932 29.9743C9.0617 29.9941 9.19433 29.9715 9.31021 29.91L12.4002 28.26C13.1312 28.6544 13.9022 28.9696 14.7002 29.2L15.7002 32.57C15.7385 32.6941 15.8154 32.8027 15.9198 32.88C16.0241 32.9574 16.1504 32.9994 16.2802 33H19.6602C19.7901 32.9994 19.9163 32.9574 20.0207 32.88C20.125 32.8027 20.2019 32.6941 20.2402 32.57L21.2402 29.19C22.0314 28.9584 22.7957 28.6433 23.5202 28.25L26.6302 29.91C26.7461 29.9715 26.8787 29.9941 27.0084 29.9743C27.1381 29.9544 27.258 29.8933 27.3502 29.8L29.7402 27.41C29.8335 27.3178 29.8947 27.1979 29.9145 27.0682C29.9343 26.9385 29.9118 26.8059 29.8502 26.69L28.1902 23.59C28.5876 22.8627 28.906 22.095 29.1402 21.3L32.5102 20.3C32.6343 20.2617 32.7429 20.1848 32.8202 20.0805C32.8976 19.9761 32.9396 19.8499 32.9402 19.72V16.31C32.9461 16.1857 32.9138 16.0625 32.8477 15.957C32.7815 15.8515 32.6847 15.7688 32.5702 15.72V15.72ZM18.0002 23.5C16.9124 23.5 15.849 23.1774 14.9446 22.5731C14.0401 21.9687 13.3352 21.1098 12.9189 20.1048C12.5026 19.0998 12.3937 17.9939 12.6059 16.927C12.8181 15.8601 13.3419 14.8801 14.1111 14.1109C14.8803 13.3417 15.8603 12.8179 16.9272 12.6057C17.9941 12.3935 19.1 12.5024 20.105 12.9187C21.11 13.3349 21.9689 14.0399 22.5733 14.9444C23.1776 15.8488 23.5002 16.9122 23.5002 18C23.5002 19.4587 22.9208 20.8576 21.8893 21.8891C20.8579 22.9205 19.4589 23.5 18.0002 23.5V23.5Z" fill="white"/>
</svg>
