<svg width="11" height="11" viewBox="0 0 11 11" fill="none" xmlns="http://www.w3.org/2000/svg">
<path d="M0.672107 2.732C0.199607 3.59846 2.87936 4.60369 2.87936 5.74769C2.87936 5.11139 2.97048 4.55292 3.15273 4.07231C3.34173 3.59169 3.62861 3.216 4.01336 2.94523C4.39811 2.67446 4.89089 2.53908 5.49164 2.53908C4.41161 2.53908 3.45648 0.203694 2.62623 0.691079C1.79598 1.17846 1.14461 1.85877 0.672107 2.732Z" fill="#9BFF4D"/>
<path d="M10.3415 2.75231C9.87577 1.87908 9.22439 1.19539 8.38739 0.701232C7.95601 0.44448 7.48818 0.950687 6.98391 1.49633C6.51765 2.00085 6.02022 2.53908 5.49164 2.53908C6.36239 2.53908 7.01714 2.83016 7.45589 3.41231C7.90139 3.99446 8.12414 4.77292 8.12414 5.74769C8.12414 5.19619 8.76275 4.6761 9.36278 4.18742C9.99267 3.67443 10.58 3.19606 10.3415 2.75231Z" fill="#9BFF4D"/>
<path d="M0.651856 8.75323C1.11761 9.61969 1.76561 10.3 2.59586 10.7942C3.02724 11.0509 3.49506 10.5447 3.99933 9.99907C4.46561 9.49455 4.96304 8.95631 5.49164 8.95631C4.63436 8.95631 3.98298 8.66862 3.53748 8.09323C3.09873 7.51108 2.87936 6.72923 2.87936 5.74769C2.87936 6.29903 2.24034 6.81978 1.63887 7.30993C1.00708 7.82478 0.416716 8.30588 0.651856 8.75323Z" fill="#9BFF4D"/>
<path d="M8.37727 10.8043C9.21427 10.3102 9.86564 9.62985 10.3314 8.76338C10.5738 8.31544 9.98665 7.83275 9.35728 7.31533C8.75975 6.8241 8.12414 6.30155 8.12414 5.74769C8.12414 6.68862 7.90477 7.46031 7.46602 8.06277C7.03402 8.65846 6.37589 8.95631 5.49164 8.95631C6.01713 8.95631 6.51221 9.49562 6.97691 10.0018C7.47921 10.549 7.946 11.0575 8.37727 10.8043Z" fill="#9BFF4D"/>
<circle cx="4.5" cy="4.5" r="0.5" fill="#9BFF4D"/>
<circle cx="6.5" cy="4.5" r="0.5" fill="#9BFF4D"/>
<path d="M3.918 6.923L4.14 6.62C4.287 6.742 4.4335 6.8375 4.5795 6.9065C4.7265 6.9755 4.875 7.024 5.025 7.052C5.176 7.081 5.331 7.096 5.49 7.097C5.649 7.096 5.8035 7.081 5.9535 7.052C6.1045 7.024 6.253 6.9755 6.399 6.9065C6.546 6.8375 6.693 6.742 6.84 6.62L7.062 6.923C6.926 7.039 6.7715 7.138 6.5985 7.22C6.4265 7.303 6.2455 7.3655 6.0555 7.4075C5.8655 7.4505 5.677 7.47 5.49 7.466C5.303 7.47 5.1145 7.4505 4.9245 7.4075C4.7355 7.3655 4.5545 7.303 4.3815 7.22C4.2085 7.138 4.054 7.039 3.918 6.923Z" fill="#9BFF4D"/>
<path d="M3.918 6.923L3.83733 6.8639C3.80638 6.90614 3.81326 6.96511 3.8531 6.99909L3.918 6.923ZM4.14 6.62L4.20386 6.54305C4.18265 6.52545 4.15511 6.51738 4.12774 6.52076C4.10038 6.52414 4.07563 6.53866 4.05933 6.5609L4.14 6.62ZM5.49 7.097L5.48937 7.19701L5.49063 7.197L5.49 7.097ZM6.84 6.62L6.92067 6.5609C6.90437 6.53866 6.87962 6.52414 6.85226 6.52076C6.82489 6.51738 6.79735 6.52545 6.77614 6.54305L6.84 6.62ZM7.062 6.923L7.12689 6.99909C7.16674 6.96511 7.17361 6.90614 7.14267 6.8639L7.062 6.923ZM5.49 7.466L5.49214 7.36593L5.48786 7.36602L5.49 7.466ZM3.99866 6.98211L4.22067 6.67911L4.05933 6.5609L3.83733 6.8639L3.99866 6.98211ZM4.07614 6.69696C4.22845 6.82336 4.38196 6.92375 4.53677 6.99692L4.62223 6.81609C4.48504 6.75126 4.34555 6.66064 4.20386 6.54305L4.07614 6.69696ZM4.53677 6.99692C4.69096 7.06929 4.84779 7.12065 5.00665 7.1503L5.04386 6.9538C4.90272 6.92745 4.76204 6.88172 4.62223 6.81609L4.53677 6.99692ZM5.00665 7.1503C5.16386 7.18049 5.32446 7.19597 5.48937 7.19701L5.49063 6.99701C5.33754 6.99604 5.18865 6.9816 5.04386 6.9538L5.00665 7.1503ZM5.49063 7.197C5.65554 7.19596 5.81619 7.1804 5.97248 7.15018L5.93527 6.95368C5.79156 6.98146 5.64246 6.99604 5.48937 6.99701L5.49063 7.197ZM5.97248 7.15018C6.13238 7.12053 6.28834 7.0694 6.44173 6.99692L6.35651 6.81598C6.2179 6.88149 6.07737 6.92733 5.93527 6.95368L5.97248 7.15018ZM6.44173 6.99692C6.59761 6.92375 6.75146 6.82344 6.90386 6.69696L6.77614 6.54305C6.63454 6.66057 6.49463 6.75115 6.35651 6.81598L6.44173 6.99692ZM6.75933 6.67911L6.98133 6.98211L7.14267 6.8639L6.92067 6.5609L6.75933 6.67911ZM6.99711 6.84692C6.86826 6.95682 6.72128 7.05113 6.55567 7.12963L6.64133 7.31036C6.82172 7.22486 6.98374 7.12118 7.12689 6.99909L6.99711 6.84692ZM6.55567 7.12963C6.39078 7.2092 6.2165 7.2695 6.03392 7.30986L6.07708 7.50514C6.2745 7.4615 6.46223 7.39679 6.64133 7.31036L6.55567 7.12963ZM6.03392 7.30986C5.85153 7.35113 5.67067 7.36975 5.49214 7.36593L5.48786 7.56598C5.68333 7.57016 5.87947 7.54987 6.07708 7.50514L6.03392 7.30986ZM5.48786 7.36602C5.30933 7.36984 5.12896 7.35124 4.94657 7.30997L4.90243 7.50503C5.10004 7.54976 5.29667 7.57016 5.49214 7.56598L5.48786 7.36602ZM4.94657 7.30997C4.76495 7.26961 4.59081 7.20951 4.42476 7.12984L4.33824 7.31016C4.51819 7.39649 4.70605 7.46139 4.90243 7.50503L4.94657 7.30997ZM4.42476 7.12984C4.25915 7.05134 4.11174 6.95682 3.98289 6.84692L3.8531 6.99909C3.99625 7.12118 4.15785 7.22466 4.33824 7.31016L4.42476 7.12984Z" fill="#9BFF4D"/>
</svg>
