<svg width="108" height="22" viewBox="0 0 108 22" fill="none" xmlns="http://www.w3.org/2000/svg">
<path d="M12.6721 6.732C12.1996 7.59846 14.8793 8.60369 14.8793 9.74769C14.8793 9.11138 14.9705 8.55292 15.1527 8.0723C15.3417 7.59169 15.6286 7.216 16.0133 6.94523C16.3981 6.67446 16.8909 6.53907 17.4916 6.53907C16.4116 6.53907 15.4565 4.20369 14.6262 4.69107C13.796 5.17846 13.1446 5.85877 12.6721 6.732Z" fill="#9BFF4D"/>
<path d="M22.3415 6.7523C21.8758 5.87907 21.2244 5.19538 20.3874 4.70123C19.956 4.44447 19.4882 4.95068 18.9839 5.49632C18.5176 6.00084 18.0202 6.53907 17.4916 6.53907C18.3624 6.53907 19.0171 6.83015 19.4559 7.4123C19.9014 7.99446 20.1241 8.77292 20.1241 9.74769C20.1241 9.19618 20.7627 8.67609 21.3628 8.18742C21.9927 7.67442 22.58 7.19605 22.3415 6.7523Z" fill="#9BFF4D"/>
<path d="M12.6518 12.7532C13.1176 13.6197 13.7656 14.3 14.5958 14.7941C15.0272 15.0509 15.495 14.5447 15.9993 13.9991C16.4656 13.4945 16.963 12.9563 17.4916 12.9563C16.6343 12.9563 15.983 12.6686 15.5375 12.0932C15.0987 11.5111 14.8793 10.7292 14.8793 9.74769C14.8793 10.299 14.2403 10.8198 13.6389 11.3099C13.0071 11.8248 12.4167 12.3059 12.6518 12.7532Z" fill="#9BFF4D"/>
<path fill-rule="evenodd" clip-rule="evenodd" d="M2.81476 20.1046L4.61337 15.1444L0.202515 4.26461H3.05776L5.93224 11.7267L8.78852 4.26461H11.5425L5.36626 20.1046H2.81476ZM29.3369 15.5557C28.4796 15.5557 27.781 15.4101 27.241 15.1191C26.701 14.828 26.2791 14.4591 25.9754 14.0123C25.6784 13.5655 25.4657 13.1018 25.3375 12.6212C25.2092 12.1338 25.1316 11.6905 25.1046 11.2911C25.0776 10.8917 25.0641 10.6006 25.0641 10.4178V4.26461H27.8586V9.44307C27.8586 9.69353 27.8721 10.0151 27.8991 10.4077C27.9261 10.7935 28.0105 11.1828 28.1522 11.5754C28.294 11.968 28.5235 12.2963 28.8407 12.5603C29.1647 12.8243 29.6204 12.9563 30.2076 12.9563C30.4439 12.9563 30.697 12.9191 30.967 12.8446C31.237 12.7702 31.4901 12.628 31.7264 12.4181C31.9626 12.2015 32.155 11.8868 32.3035 11.4738C32.4587 11.0542 32.5364 10.5058 32.5364 9.82892V4.26461H35.3106V15.2308H32.8806V14.1C32.6265 14.3838 32.3329 14.6355 31.9997 14.8551C31.2977 15.3221 30.4101 15.5557 29.3369 15.5557ZM38.1404 4.26461H40.5704V6.02928C40.661 5.8667 40.7623 5.71171 40.8741 5.5643C41.1104 5.25292 41.4006 4.99569 41.7449 4.79261C42.0081 4.63015 42.295 4.50492 42.6055 4.41692C42.916 4.32215 43.2366 4.26461 43.5674 4.2443C43.8981 4.21723 44.2289 4.224 44.5596 4.26461V6.84369C44.2559 6.74892 43.9015 6.71846 43.4965 6.7523C43.0983 6.77938 42.7371 6.87077 42.4131 7.02646C42.0891 7.17538 41.8158 7.37507 41.593 7.62554C41.3703 7.86923 41.2015 8.1603 41.0868 8.49877C40.972 8.83046 40.9146 9.20615 40.9146 9.62584V15.2308H38.1404V4.26461ZM104.517 15.2308V12.4689H107.271V15.2308H104.517Z" fill="white"/>
<path d="M20.3773 14.8043C21.2143 14.3102 21.8656 13.6298 22.3314 12.7634C22.5738 12.3154 21.9866 11.8327 21.3573 11.3153C20.7597 10.8241 20.1241 10.3015 20.1241 9.74769C20.1241 10.6886 19.9048 11.4603 19.466 12.0628C19.034 12.6585 18.3759 12.9563 17.4916 12.9563C18.0171 12.9563 18.5122 13.4956 18.9769 14.0018C19.4792 14.549 19.946 15.0575 20.3773 14.8043Z" fill="#9BFF4D"/>
<path d="M50.9203 15.5354C49.9145 15.5354 49.0337 15.2815 48.2777 14.7739C47.5217 14.2662 46.9311 13.5757 46.5058 12.7025C46.0873 11.8292 45.8781 10.8443 45.8781 9.7477C45.8781 8.63078 46.0907 7.63908 46.5159 6.77262C46.9479 5.89939 47.5521 5.21231 48.3283 4.71139C49.1046 4.21047 50.0158 3.96001 51.0621 3.96001C52.1016 3.96001 52.9757 4.21385 53.6844 4.72155C54.3932 5.22924 54.9298 5.9197 55.2943 6.79293C55.6588 7.66616 55.8411 8.65108 55.8411 9.7477C55.8411 10.8443 55.6554 11.8292 55.2842 12.7025C54.9197 13.5757 54.3729 14.2662 53.6439 14.7739C52.9149 15.2815 52.007 15.5354 50.9203 15.5354ZM51.3658 13.0782C51.98 13.0782 52.4694 12.9394 52.8339 12.6619C53.2052 12.3843 53.4718 11.9951 53.6338 11.4942C53.7958 10.9932 53.8768 10.4111 53.8768 9.7477C53.8768 9.08431 53.7958 8.50216 53.6338 8.00124C53.4718 7.50031 53.2119 7.11108 52.8542 6.83355C52.5032 6.55601 52.0408 6.41724 51.4671 6.41724C50.8528 6.41724 50.3466 6.56954 49.9483 6.87416C49.5568 7.17201 49.2666 7.57478 49.0776 8.08247C48.8886 8.58339 48.7941 9.13847 48.7941 9.7477C48.7941 10.3637 48.8852 10.9255 49.0674 11.4332C49.2497 11.9342 49.5298 12.3335 49.9078 12.6314C50.2858 12.9292 50.7718 13.0782 51.3658 13.0782ZM53.8768 15.2308V7.71693H53.5326V0.609238H56.3068V15.2308H53.8768ZM59.1418 15.2308V4.26462H61.5718V6.94524L61.3086 6.60001C61.4503 6.22093 61.6393 5.8757 61.8756 5.56431C62.1118 5.25293 62.402 4.9957 62.7463 4.79262C63.0095 4.63016 63.2964 4.50493 63.6069 4.41693C63.9174 4.32216 64.2381 4.26462 64.5688 4.24431C64.8996 4.21724 65.2303 4.22401 65.5611 4.26462V6.8437C65.2573 6.74893 64.9029 6.71847 64.4979 6.75231C64.0997 6.77939 63.7385 6.87078 63.4145 7.02647C63.0905 7.17539 62.8172 7.37508 62.5944 7.62555C62.3717 7.86924 62.2029 8.16031 62.0882 8.49878C61.9734 8.83047 61.9161 9.20616 61.9161 9.62585V15.2308H59.1418ZM71.5572 15.5557C70.7 15.5557 70.0014 15.4102 69.4614 15.1191C68.9214 14.828 68.4995 14.4591 68.1957 14.0123C67.8987 13.5655 67.6861 13.1019 67.5579 12.6212C67.4296 12.1339 67.352 11.6905 67.325 11.2911C67.298 10.8917 67.2845 10.6006 67.2845 10.4179V4.26462H70.079V9.44308C70.079 9.69355 70.0925 10.0151 70.1195 10.4077C70.1465 10.7935 70.2309 11.1828 70.3726 11.5754C70.5144 11.968 70.7439 12.2963 71.0611 12.5603C71.3851 12.8243 71.8407 12.9563 72.428 12.9563C72.6642 12.9563 72.9174 12.9191 73.1874 12.8446C73.4574 12.7702 73.7105 12.628 73.9467 12.4182C74.183 12.2015 74.3754 11.8868 74.5239 11.4739C74.6791 11.0542 74.7567 10.5059 74.7567 9.82893L76.3362 10.5803C76.3362 11.4468 76.1607 12.2591 75.8097 13.0172C75.4587 13.7754 74.9289 14.388 74.2201 14.8551C73.5181 15.3222 72.6305 15.5557 71.5572 15.5557ZM75.101 15.2308V11.5957H74.7567V4.26462H77.531V15.2308H75.101ZM85.0387 20.4092C84.4177 20.4092 83.8271 20.3077 83.2668 20.1046C82.7066 19.9083 82.2037 19.6308 81.7582 19.272C81.3194 18.92 80.9617 18.5071 80.6849 18.0332L83.2364 16.7945C83.4119 17.1194 83.6617 17.3665 83.9857 17.5357C84.3164 17.7049 84.6742 17.7895 85.0589 17.7895C85.4707 17.7895 85.8588 17.7185 86.2233 17.5763C86.5878 17.4409 86.8781 17.2345 87.0941 16.9569C87.3168 16.6862 87.4214 16.3477 87.4079 15.9415V12.7532H87.7522V4.26462H90.1619V15.9822C90.1619 16.2529 90.1484 16.5068 90.1214 16.7437C90.1012 16.9874 90.0607 17.2277 89.9999 17.4646C89.8244 18.1348 89.4971 18.6865 89.0178 19.1197C88.5453 19.5529 87.9648 19.8745 87.2763 20.0843C86.5878 20.3009 85.8419 20.4092 85.0387 20.4092ZM84.7957 15.5354C83.7899 15.5354 82.9091 15.2815 82.1531 14.7739C81.3971 14.2662 80.8064 13.5757 80.3812 12.7025C79.9627 11.8292 79.7534 10.8443 79.7534 9.7477C79.7534 8.63078 79.9661 7.63908 80.3913 6.77262C80.8233 5.89939 81.4274 5.21231 82.2037 4.71139C82.9799 4.21047 83.8912 3.96001 84.9374 3.96001C85.9769 3.96001 86.8511 4.21385 87.5598 4.72155C88.2686 5.22924 88.8052 5.9197 89.1695 6.79293C89.5342 7.66616 89.7164 8.65108 89.7164 9.7477C89.7164 10.8443 89.5308 11.8292 89.1596 12.7025C88.7951 13.5757 88.2483 14.2662 87.5193 14.7739C86.7903 15.2815 85.8824 15.5354 84.7957 15.5354ZM85.2412 13.0782C85.8554 13.0782 86.3448 12.9394 86.7093 12.6619C87.0806 12.3843 87.3472 11.9951 87.5092 11.4942C87.6712 10.9932 87.7522 10.4111 87.7522 9.7477C87.7522 9.08431 87.6712 8.50216 87.5092 8.00124C87.3472 7.50031 87.0873 7.11108 86.7296 6.83355C86.3786 6.55601 85.9162 6.41724 85.3424 6.41724C84.7282 6.41724 84.2219 6.56954 83.8237 6.87416C83.4322 7.17201 83.1419 7.57478 82.9529 8.08247C82.7639 8.58339 82.6694 9.13847 82.6694 9.7477C82.6694 10.3637 82.7606 10.9255 82.9428 11.4332C83.1251 11.9342 83.4052 12.3335 83.7832 12.6314C84.1612 12.9292 84.6472 13.0782 85.2412 13.0782ZM97.27 15.5354C95.893 15.5354 94.7793 15.224 93.9288 14.6012C93.085 13.9717 92.572 13.0849 92.3898 11.9409L95.2045 11.5145C95.3193 12.0289 95.5724 12.4317 95.9639 12.7228C96.3621 13.0139 96.865 13.1594 97.4725 13.1594C97.972 13.1594 98.3568 13.0646 98.6268 12.8751C98.8968 12.6788 99.0318 12.408 99.0318 12.0628C99.0318 11.8462 98.9778 11.6735 98.8698 11.5449C98.7618 11.4095 98.5188 11.2775 98.1408 11.1489C97.7695 11.0203 97.189 10.8511 96.3993 10.6412C95.5083 10.4111 94.7961 10.1539 94.2629 9.86954C93.7296 9.58524 93.3449 9.24678 93.1086 8.85416C92.8724 8.45478 92.7543 7.97416 92.7543 7.41231C92.7543 6.70831 92.9331 6.09908 93.2909 5.58462C93.6486 5.06339 94.1515 4.66401 94.7995 4.38647C95.4543 4.10216 96.2238 3.96001 97.108 3.96001C97.9653 3.96001 98.7246 4.09201 99.3861 4.35601C100.048 4.62001 100.581 4.9957 100.986 5.48308C101.398 5.97047 101.651 6.54585 101.745 7.20924L98.9305 7.71693C98.8833 7.31078 98.7078 6.98924 98.404 6.75231C98.1003 6.51539 97.6885 6.37662 97.1688 6.33601C96.6625 6.30216 96.2541 6.36985 95.9436 6.53908C95.6399 6.70831 95.488 6.95201 95.488 7.27016C95.488 7.4597 95.5521 7.61878 95.6804 7.74739C95.8154 7.87601 96.0888 8.00801 96.5005 8.14339C96.919 8.27878 97.5535 8.45478 98.404 8.67139C99.2343 8.88801 99.8991 9.14185 100.399 9.43293C100.905 9.71724 101.273 10.0625 101.502 10.4686C101.732 10.868 101.847 11.352 101.847 11.9206C101.847 13.0443 101.442 13.9277 100.632 14.5708C99.8215 15.2139 98.701 15.5354 97.27 15.5354Z" fill="#9BFF4D"/>
<circle cx="16.5" cy="8.5" r="0.5" fill="#9BFF4D"/>
<circle cx="18.5" cy="8.5" r="0.5" fill="#9BFF4D"/>
<path d="M15.918 10.923L16.14 10.62C16.287 10.742 16.4335 10.8375 16.5795 10.9065C16.7265 10.9755 16.875 11.024 17.025 11.052C17.176 11.081 17.331 11.096 17.49 11.097C17.649 11.096 17.8035 11.081 17.9535 11.052C18.1045 11.024 18.253 10.9755 18.399 10.9065C18.546 10.8375 18.693 10.742 18.84 10.62L19.062 10.923C18.926 11.039 18.7715 11.138 18.5985 11.22C18.4265 11.303 18.2455 11.3655 18.0555 11.4075C17.8655 11.4505 17.677 11.47 17.49 11.466C17.303 11.47 17.1145 11.4505 16.9245 11.4075C16.7355 11.3655 16.5545 11.303 16.3815 11.22C16.2085 11.138 16.054 11.039 15.918 10.923Z" fill="#9BFF4D"/>
<path d="M15.918 10.923L15.8373 10.8639C15.8064 10.9061 15.8133 10.9651 15.8531 10.9991L15.918 10.923ZM16.14 10.62L16.2039 10.5431C16.1826 10.5254 16.1551 10.5174 16.1277 10.5208C16.1004 10.5241 16.0756 10.5387 16.0593 10.5609L16.14 10.62ZM16.5795 10.9065L16.5368 10.9969L16.537 10.997L16.5795 10.9065ZM17.025 11.052L17.0439 10.9538L17.0433 10.9537L17.025 11.052ZM17.49 11.097L17.4894 11.197L17.4906 11.197L17.49 11.097ZM17.9535 11.052L17.9353 10.9537L17.9345 10.9538L17.9535 11.052ZM18.399 10.9065L18.3565 10.816L18.3563 10.8161L18.399 10.9065ZM18.84 10.62L18.9207 10.5609C18.9044 10.5387 18.8796 10.5241 18.8523 10.5208C18.8249 10.5174 18.7973 10.5254 18.7761 10.5431L18.84 10.62ZM19.062 10.923L19.1269 10.9991C19.1667 10.9651 19.1736 10.9061 19.1427 10.8639L19.062 10.923ZM18.5985 11.22L18.5557 11.1296L18.555 11.1299L18.5985 11.22ZM18.0555 11.4075L18.0339 11.3099L18.0334 11.31L18.0555 11.4075ZM17.49 11.466L17.4921 11.3659L17.4879 11.366L17.49 11.466ZM16.9245 11.4075L16.9466 11.31L16.9462 11.3099L16.9245 11.4075ZM16.3815 11.22L16.4248 11.1298L16.4243 11.1296L16.3815 11.22ZM15.9987 10.9821L16.2207 10.6791L16.0593 10.5609L15.8373 10.8639L15.9987 10.9821ZM16.0761 10.697C16.2284 10.8234 16.382 10.9238 16.5368 10.9969L16.6222 10.8161C16.485 10.7513 16.3455 10.6606 16.2039 10.5431L16.0761 10.697ZM16.537 10.997C16.6912 11.0694 16.8478 11.1207 17.0066 11.1503L17.0433 10.9537C16.9022 10.9274 16.7618 10.8816 16.622 10.816L16.537 10.997ZM17.0061 11.1502C17.1633 11.1804 17.3245 11.196 17.4894 11.197L17.4906 10.997C17.3375 10.996 17.1886 10.9816 17.0439 10.9538L17.0061 11.1502ZM17.4906 11.197C17.6555 11.196 17.8162 11.1804 17.9725 11.1502L17.9345 10.9538C17.7908 10.9816 17.6425 10.996 17.4894 10.997L17.4906 11.197ZM17.9717 11.1503C18.1316 11.1207 18.2883 11.0694 18.4417 10.9969L18.3563 10.8161C18.2177 10.8816 18.0774 10.9273 17.9353 10.9537L17.9717 11.1503ZM18.4415 10.997C18.5974 10.9239 18.7515 10.8234 18.9039 10.697L18.7761 10.5431C18.6345 10.6606 18.4946 10.7511 18.3565 10.816L18.4415 10.997ZM18.7593 10.6791L18.9813 10.9821L19.1427 10.8639L18.9207 10.5609L18.7593 10.6791ZM18.9971 10.8469C18.8683 10.9568 18.7213 11.0511 18.5557 11.1296L18.6413 11.3104C18.8217 11.2249 18.9837 11.1212 19.1269 10.9991L18.9971 10.8469ZM18.555 11.1299C18.3901 11.2095 18.2165 11.2695 18.0339 11.3099L18.0771 11.5051C18.2745 11.4615 18.4629 11.3965 18.642 11.3101L18.555 11.1299ZM18.0334 11.31C17.851 11.3512 17.6707 11.3698 17.4921 11.366L17.4879 11.566C17.6833 11.5702 17.88 11.5498 18.0776 11.505L18.0334 11.31ZM17.4879 11.366C17.3093 11.3698 17.129 11.3512 16.9466 11.31L16.9024 11.505C17.1 11.5498 17.2967 11.5702 17.4921 11.566L17.4879 11.366ZM16.9462 11.3099C16.7646 11.2695 16.5908 11.2095 16.4248 11.1298L16.3382 11.3102C16.5182 11.3965 16.7064 11.4615 16.9028 11.5051L16.9462 11.3099ZM16.4243 11.1296C16.2587 11.0511 16.1117 10.9568 15.9829 10.8469L15.8531 10.9991C15.9963 11.1212 16.1583 11.2249 16.3387 11.3104L16.4243 11.1296Z" fill="#9BFF4D"/>
</svg>
